#!OML:ASF E:\acrobat2\Project_11_07_03\Capture day 1\Session 1\Acrobat.ASF
:FULLY-SPECIFIED
:DEGREES
204
root 11.0875 21.4836 15.5641 3.70269 0.601943 -1.39033
lowerback -9.54811 -3.49809 -1.53397
upperback -1.14327 -4.57435 1.81232
thorax 4.42284 -2.30577 2.13335
lowerneck 10.1547 -16.0691 -11.6119
upperneck 2.60853 -22.7854 10.5165
head 1.7087 -11.6518 4.71509
rclavicle 2.02512e-015 6.16232e-015
rhumerus -36.2302 -1.7985 -84.4778
rradius 23.4922
rwrist 6.60916
rhand -5.59368 -40.2689
rfingers 7.12502
rthumb 20.2229 -69.2362
lclavicle 2.02512e-015 6.16232e-015
lhumerus -33.8721 7.75278 84.3415
lradius 20.5608
lwrist -3.25147
lhand -3.22522 -13.3328
lfingers 7.12502
lthumb 22.4978 15.3766
rfemur 6.52402 7.65955 17.3173
rtibia 0.346661
rfoot -12.3343 -13.9417
rtoes 23.7093
lfemur 4.32098 -2.28696 -12.1731
ltibia 3.29915
lfoot -10.1417 -0.886622
ltoes 10.9325
205
root 11.091 21.5027 15.5619 3.55488 0.670572 -1.46475
lowerback -9.37852 -3.48171 -1.44415
upperback -1.06746 -4.56455 1.81749
thorax 4.40039 -2.30024 2.09747
lowerneck 10.206 -16.0856 -11.4645
upperneck 2.59906 -22.7926 10.4619
head 1.67662 -11.6549 4.68938
rclavicle -9.54166e-015 -3.97569e-016
rhumerus -36.2007 -1.77326 -84.545
rradius 23.5537
rwrist 6.47629
rhand -5.5855 -40.4292
rfingers 7.12502
rthumb 20.2308 -69.3957
lclavicle -9.54166e-015 -3.97569e-016
lhumerus -33.7657 7.52523 84.4653
lradius 20.6157
lwrist -3.09509
lhand -3.27388 -13.3513
lfingers 7.12502
lthumb 22.4511 15.3637
rfemur 6.55029 7.4304 17.378
rtibia 0.505656
rfoot -11.847 -13.9836
rtoes 24.4563
lfemur 4.16668 -2.07921 -12.092
ltibia 3.76188
lfoot -9.64749 -0.774656
ltoes 10.8138
206
root 11.0943 21.5227 15.5601 3.4131 0.729731 -1.55612
lowerback -9.23958 -3.46426 -1.33866
upperback -0.981082 -4.55488 1.82991
thorax 4.40537 -2.29468 2.05816
lowerneck 10.2837 -16.0925 -11.3085
upperneck 2.5408 -22.783 10.3718
head 1.61904 -11.6496 4.65932
rclavicle 3.4924e-014 2.5842e-015
rhumerus -36.1675 -1.72316 -84.6205
rradius 23.6394
rwrist 6.34688
rhand -5.52351 -40.5785
rfingers 7.12502
rthumb 20.2904 -69.5387
lclavicle 3.4924e-014 2.5842e-015
lhumerus -33.6516 7.34368 84.5742
lradius 20.6985
lwrist -2.98187
lhand -3.28641 -13.3694
lfingers 7.12502
lthumb 22.4391 15.3472
rfemur 6.57514 7.27584 17.4755
rtibia 0.659251
rfoot -11.3666 -14.0579
rtoes 25.2175
lfemur 4.00243 -1.88385 -11.9787
ltibia 4.23929
lfoot -9.17817 -0.659966
ltoes 11.0297
207
root 11.0973 21.5432 15.5582 3.28516 0.776503 -1.64933
lowerback -9.11686 -3.44669 -1.23464
upperback -0.900163 -4.54486 1.85028
thorax 4.41442 -2.28894 2.02717
lowerneck 10.3641 -16.0907 -11.1796
upperneck 2.47797 -22.7635 10.2627
head 1.55943 -11.6393 4.62824
rclavicle -3.34704e-014 1.76918e-014
rhumerus -36.146 -1.62587 -84.6998
rradius 23.7427
rwrist 6.23023
rhand -5.38541 -40.7121
rfingers 7.12502
rthumb 20.4231 -69.6581
lclavicle -3.34704e-014 1.76918e-014
lhumerus -33.5495 7.21912 84.6681
lradius 20.8125
lwrist -2.91408
lhand -3.25204 -13.3634
lfingers 7.12502
lthumb 22.4721 15.3492
rfemur 6.59099 7.19632 17.5896
rtibia 0.800127
rfoot -10.9132 -14.1679
rtoes 25.975
lfemur 3.82816 -1.7159 -11.8541
ltibia 4.70751
lfoot -8.73874 -0.519342
ltoes 11.5009
208
root 11.1008 21.5645 15.5562 3.1727 0.822675 -1.71499
lowerback -9.03724 -3.43244 -1.15263
upperback -0.804664 -4.5366 1.86498
thorax 4.46406 -2.28455 1.99926
lowerneck 10.4007 -16.0891 -11.0768
upperneck 2.44053 -22.7449 10.1441
head 1.51595 -11.6283 4.59188
rclavicle -4.63914e-014 1.27222e-014
rhumerus -36.0939 -1.47809 -84.7934
rradius 23.8453
rwrist 6.11822
rhand -5.18431 -40.834
rfingers 7.12502
rthumb 20.6163 -69.7591
lclavicle -4.63914e-014 1.27222e-014
lhumerus -33.4254 7.0996 84.7665
lradius 20.9619
lwrist -2.83752
lhand -3.18272 -13.3275
lfingers 7.12502
lthumb 22.5386 15.377
rfemur 6.60385 7.1513 17.6734
rtibia 0.915222
rfoot -10.511 -14.2978
rtoes 26.7848
lfemur 3.64487 -1.57491 -11.7626
ltibia 5.15974
lfoot -8.32351 -0.36891
ltoes 12.219
